<?xml version="1.0" encoding="UTF-8"?>
<svg width="509px" height="442px" viewBox="0 0 509 442" version="1.1" xmlns="http://www.w3.org/2000/svg" xmlns:xlink="http://www.w3.org/1999/xlink">
    <title>Artboard Copy 10</title>
    <g id="Artboard-Copy-10" stroke="none" stroke-width="1" fill="none" fill-rule="evenodd">
        <g id="Bitmap" transform="translate(19.000000, 0.000000)" fill="#1C269E" fill-opacity="0.1" fill-rule="nonzero">
            <path d="M470,192.212996 C470,198.180089 470,204.147167 469.775927,210.784415 C469.230981,211.987386 468.830033,212.487975 468.60069,213.057715 C460.508148,233.162096 452.431844,253.273039 444.352963,273.382894 C434.648809,297.538385 424.918048,321.683157 415.247859,345.852232 C406.732202,367.135812 398.213567,388.418904 389.876589,409.772667 C388.510758,413.271059 386.274096,415.147867 382.845186,415.836622 C379.329612,416.5428 375.791157,417.181375 372.235116,417.630867 C360.334853,419.135214 348.288645,419.859934 336.549133,422.163194 C322.767505,424.867143 308.736401,425.348647 294.963737,428.045633 C285.054555,429.986117 274.883669,430.561532 264.849362,431.89528 C248.484137,434.070614 232.12464,436.294866 215.783915,438.646156 C208.238081,439.731931 200.544296,439.841575 193.157724,442 C178.748569,442 164.339428,442 149.280135,441.766785 C132.793967,421.221909 116.894286,400.959597 101.139262,380.585263 C84.3284181,358.84557 67.6864744,336.975199 50.9112946,315.207795 C34.5181571,293.936137 18.0636798,272.711678 1.593034,251.500029 C-0.0199767282,249.422732 -0.511028296,247.266371 0.598532085,244.957808 C4.59393483,236.64487 7.4703167,227.892755 10.815294,219.32445 C16.4302879,204.941367 22.1297318,190.591153 27.7082885,176.193999 C34.9819505,157.422077 42.1149841,138.59549 49.4147763,119.833828 C56.7087726,101.087039 64.1315015,82.3903925 71.5022366,63.6735077 C75.9029965,52.4984587 80.3109871,41.3262692 84.7188201,30.1540073 C85.7058482,27.6522722 87.2726329,25.9291222 90.186196,25.7331192 C93.9213098,25.4818363 97.6544688,25.16123 101.376079,24.756421 C117.175909,23.0378273 132.977057,21.3285263 148.766062,19.5142952 C160.070917,18.2153154 171.324493,16.284291 182.660737,15.4940813 C194.974292,14.6357502 207.08501,12.3556344 219.350251,11.232869 C231.890657,10.0849184 244.430033,8.92413563 256.899127,7.01013708 C265.208439,5.73465609 273.654102,5.37626902 282.016054,4.41043845 C295.324248,2.87329994 308.560671,0.699145402 321.965465,0.0304439932 C324.235806,-0.0828118761 326.314409,0.0234123951 327.839388,2.07389513 C330.539404,5.70427222 333.339856,9.25977894 336.045399,12.8861416 C349.767743,31.2788931 363.450222,49.7014875 377.190553,68.0807655 C392.33088,88.3326967 407.538796,108.534019 422.680584,128.784869 C438.476491,149.910546 454.228694,171.068921 470,192.212996 M311.99173,187.224184 C308.666636,173.904222 307.462818,160.209534 304.817445,146.751687 C300.615192,125.37318 297.591182,103.763377 294.020907,82.2593567 C293.366732,78.3190794 291.986066,77.8296593 288.7757,80.2958524 C280.11132,86.9518 271.509,93.688855 262.825403,100.319419 C236.271763,120.595014 209.654503,140.787345 183.131536,161.102975 C154.009207,183.409627 124.925326,205.767176 95.9379585,228.248768 C92.5697123,230.86107 88.5768819,232.924267 85.5065199,237.686627 C169.961111,277.009214 254.037845,316.155871 338.395615,355.433408 C339.589095,352.335275 339.537487,350.508588 339.104234,348.662616 C337.181343,340.470096 336.506432,332.071472 334.902037,323.810404 C332.054959,309.150947 330.008175,294.337428 327.509808,279.608219 C324.912322,264.294483 322.108776,249.015739 319.520281,233.700541 C316.949686,218.491119 314.534603,203.255332 311.99173,187.224184 M85.2620982,248.784043 C83.7492912,249.240127 84.4884901,250.321976 84.7652161,251.063144 C87.3821488,258.072339 89.993175,265.085287 92.7443257,272.042353 C98.4161632,286.385202 104.223529,300.674403 109.880352,315.023127 C115.373074,328.9556 120.688361,342.958169 126.189402,356.887289 C132.083185,371.810881 138.083407,386.692462 144.074193,401.577482 C148.148,411.699482 152.380368,421.758865 156.332803,431.927606 C157.420347,434.725609 158.950095,435.056546 161.356086,434.065456 C169.574955,430.679744 177.796102,427.299563 186.016847,423.918408 C207.513839,415.076854 228.98719,406.177067 250.514454,397.409965 C275.934898,387.057272 301.404029,376.824282 326.843948,366.519418 C328.242542,365.952887 329.868674,365.52271 330.082236,363.117572 C325.338472,360.120943 319.98793,358.023215 314.797109,355.593001 C292.615641,345.20804 270.494686,334.693404 248.301103,324.334492 C232.753528,317.07764 217.088902,310.071856 201.540481,302.816781 C182.600695,293.979181 163.761403,284.925847 144.817006,276.098278 C125.164162,266.940602 105.437629,257.94126 85.2620982,248.784043 M368.148249,325.553696 C375.188903,316.197081 382.27329,306.872991 389.26099,297.476943 C403.143914,278.809162 416.980014,260.106534 430.822987,241.409035 C439.930759,229.107288 448.929187,216.722923 458.173884,204.525245 C460.50474,201.449808 459.844664,199.577457 457.046188,197.635396 C454.351757,195.765508 451.689002,193.844983 449.07983,191.857929 C428.711593,176.346257 408.384311,160.780636 387.996027,145.295442 C365.858491,128.481644 343.675332,111.727955 321.497243,94.9676818 C316.202032,90.9660133 310.848025,87.0422285 305.521053,83.0826293 C305.078492,83.3037434 304.635902,83.5248575 304.193341,83.7459781 C319.189499,171.86461 334.185686,259.98325 349.181871,348.101874 C349.745978,348.14509 350.310112,348.188277 350.874247,348.231464 C357.145481,341.366331 362.124744,333.475804 368.148249,325.553696 M228.020632,63.0561459 C224.778133,62.6026633 221.465598,62.4323085 218.304593,61.6493925 C198.949008,56.8553516 179.178872,54.137439 159.728736,49.819033 C153.4932,48.4345894 147.131381,47.6291916 140.869397,46.3524213 C126.832279,43.4903618 112.838664,40.4165149 98.6713883,38.2228197 C96.3020699,37.8559539 95.043085,38.4188724 94.9637542,40.9526902 C94.4308723,57.9711887 91.6980083,74.818738 91.1200836,91.8447593 C90.701651,104.172119 89.929095,116.500201 88.871458,128.789783 C87.6128448,143.414736 86.3316788,158.028985 85.5097632,172.690648 C84.7410229,186.403705 84.0385614,200.133929 82.227692,213.772661 C81.7683628,217.232109 81.1054447,220.784521 83.2243786,225.390383 C148.819918,175.056225 213.933539,125.091877 279.047146,75.1275227 C278.940522,74.5645394 278.833869,74.0015552 278.727217,73.4385719 C262.089405,70.02752 245.451563,66.6164681 228.020632,63.0561459 M404.501297,145.48835 C410.962953,150.399901 417.408686,155.332573 423.89079,160.217 C430.209164,164.978071 436.273566,170.111173 442.98991,174.298564 C443.248522,174.01024 443.507134,173.721917 443.765745,173.433594 C403.932952,120.197477 364.100131,66.9613826 323.798658,13.0989207 C322.806455,15.0261908 322.388093,15.6793491 322.117024,16.3888475 C316.717967,30.5204759 311.65313,44.7906741 305.847339,58.7524783 C301.427656,69.3809275 302.193496,67.7671955 310.013708,73.7216068 C325.158847,85.2533488 340.357742,96.7143917 355.517459,108.227069 C371.676768,120.498911 387.816487,132.796589 404.501297,145.48835 M89.9442519,349.56825 C104.830915,368.947453 119.717578,388.326685 134.604249,407.705888 C134.463201,404.332098 133.539917,401.408202 132.413252,398.564977 C125.292523,380.595035 118.119484,362.645898 110.978064,344.684152 C105.039881,329.748753 99.1274105,314.80318 93.1925934,299.866434 C86.3392249,282.617887 79.3817318,265.409718 72.6940623,248.097151 C71.4090806,244.770675 69.837477,243.413284 66.1948032,243.770156 C52.8531592,245.077224 39.4589659,245.892816 26.1479435,247.439634 C22.1348688,247.905949 17.6801979,246.967502 13.9153354,249.582641 C13.9109931,251.856384 15.4380016,253.135225 16.5379195,254.565063 C31.8583691,274.480275 47.2031012,294.376832 62.5661987,314.259175 C71.5340331,325.864974 80.5451262,337.437359 89.9442519,349.56825 M169.832951,42.3482812 C188.008473,45.118143 205.968255,48.9833874 223.96995,52.687169 C245.315498,57.0789373 266.822801,60.6792648 288.224539,64.8066392 C291.450112,65.4286933 292.941726,64.2091665 293.97225,61.583552 C299.842592,46.6264593 305.732783,31.676985 311.523365,16.6889994 C312.148558,15.0708323 313.546436,13.393258 311.872133,10.7933707 C249.919475,17.8273896 187.692454,24.8925549 125.465432,31.9577249 C125.442263,32.4435231 125.419108,32.929325 125.395939,33.4151269 C133.023582,34.5756017 140.605415,35.9214146 148.060149,37.8557962 C154.984614,39.6525563 162.340213,39.3729527 169.832951,42.3482812 M78.6009568,132.438858 C79.4477094,120.908227 80.3724039,109.382639 81.1190559,97.8455324 C81.8496549,86.556512 82.3987824,75.2557432 83.0275625,63.9601326 C82.6661294,63.9188727 82.3046888,63.8776203 81.9432548,63.8363678 C59.5443798,121.591923 37.1455001,179.34747 14.5545548,237.598276 C19.2872908,237.598276 23.024455,237.906947 26.6949951,237.54291 C40.0235186,236.221141 53.3169564,234.535678 66.652751,233.302832 C70.2777181,232.96774 71.701701,231.45643 71.7391113,228.08711 C72.0081616,203.859618 75.8501571,179.880156 76.7695456,155.679844 C77.0514912,148.258627 76.4871853,140.637581 78.6009568,132.438858 M437.330895,249.167194 C431.192977,257.43448 425.048728,265.697125 418.918457,273.970057 C406.562859,290.644365 394.207004,307.318444 381.866441,324.003842 C373.143752,335.797549 364.509815,347.657798 355.691355,359.379202 C353.544133,362.23323 353.628217,364.47267 355.760461,367.250556 C361.460773,374.676803 366.83858,382.352227 372.590157,389.737092 C375.497004,393.469444 377.716311,397.82951 382.507673,401.500336 C404.860661,345.875932 427.003409,290.774728 449.146157,235.673524 C444.033006,239.101763 441.353697,244.263753 437.330895,249.167194 M245.381999,410.342377 C228.943916,417.04591 212.505833,423.749444 194.793006,430.972824 C202.166591,430.306165 208.296576,430.393427 214.118534,429.096303 C227.565069,426.100361 241.335341,425.718414 254.854663,423.350302 C264.666816,421.631569 274.718248,421.267017 284.518716,419.498276 C300.149146,416.677375 316.005911,415.654016 331.643386,412.821108 C343.429436,410.685895 355.523444,410.390637 367.3544,408.232956 C371.897174,407.404468 372.476459,406.252007 369.702154,402.52934 C362.608403,393.010638 355.291438,383.654136 348.381779,374.004699 C345.972366,370.639879 343.677996,370.25839 340.097097,371.737146 C326.392279,377.396629 312.582012,382.799856 298.85414,388.404174 C281.238471,395.595601 263.664244,402.888619 245.381999,410.342377 Z" id="Shape"></path>
        </g>
        <path d="M3.05319149,202 L43.7624113,199.663809 C63.2446809,198.495713 79.2375887,193.652983 91.7411348,185.135618 C104.244681,176.618253 113.161939,165.107643 118.492908,150.603788 C121.497636,142.329776 123,134.688484 123,127.679909 C123,118.432485 120.867612,110.426162 116.602837,103.660941 C112.338061,96.8957196 106.086288,91.7853008 97.8475177,88.3296842 C89.608747,84.8740677 79.5768322,83.486954 67.751773,84.1683432 L67.751773,84.1683432 L26.1702128,86.6505466 L29.2234043,103.003887 L38.2375887,102.419839 L8.14184397,185.208624 L0,185.64666 L3.05319149,202 Z M38,183 L68.0310881,100.049803 C76.2521589,99.6596787 82.6355786,101.561535 87.1813472,105.755372 C91.7271157,109.949209 94,116.044903 94,124.042453 C94,127.065917 93.6856649,130.333208 93.0569948,133.844328 C92.4283247,137.355447 91.388601,141.061629 89.9378238,144.962873 C85.3920553,157.544384 79.492228,166.785455 72.238342,172.686087 C64.984456,178.586718 55.6027634,181.927158 44.0932642,182.707407 L44.0932642,182.707407 L38,183 Z M189.439024,202 L219,120.766234 L194.268293,112 L189.731707,124.272727 L177.878049,112 C169.292683,114.922078 161.317073,118.818182 153.95122,123.688312 C146.585366,128.558442 140.121951,133.988636 134.560976,139.978896 C129,145.969156 124.682927,152.12987 121.609756,158.461039 C118.536585,164.792208 117,170.977273 117,177.016234 C117,184.418831 119.170732,190.189935 123.512195,194.329545 C127.853659,198.469156 133.292683,200.538961 139.829268,200.538961 C145.195122,200.538961 150.219512,199.029221 154.902439,196.00974 C159.585366,192.99026 164.170732,188.412338 168.658537,182.275974 L168.658537,182.275974 L164.707317,193.233766 L189.439024,202 Z M149.150502,181 C147.777035,181 146.575251,180.537838 145.545151,179.613514 C144.51505,178.689189 144,177.156757 144,175.016216 C144,171.805405 145.103679,168.035135 147.311037,163.705405 C149.518395,159.375676 152.608696,154.875676 156.58194,150.205405 C160.555184,145.535135 165.215162,141.156757 170.561873,137.07027 C175.908584,132.983784 181.721293,129.627027 188,127 C183.09476,139.940541 178.140468,150.375676 173.137124,158.305405 C168.133779,166.235135 163.54738,172 159.377926,175.6 C155.208473,179.2 151.799331,181 149.150502,181 Z M237.473581,201 C244.038487,193.930393 250.820613,187.078686 257.819961,180.444877 C264.819309,173.811068 272.035877,167.44358 279.469667,161.342412 L279.469667,161.342412 L269.477495,149.140078 C266.001957,152.045396 262.598826,155.071768 259.268102,158.219196 C255.937378,161.366623 252.679061,164.586684 249.493151,167.879377 L249.493151,167.879377 L263.97456,127.785992 L287,127.204929 L283.234834,111.516213 L269.767123,111.806744 L274.835616,97.7159533 L250.362035,89 L241.818004,112.533074 L221.833659,112.968872 L225.598826,128.657588 L236.170254,128.367056 L213,192.284047 L237.473581,201 Z M353.439024,202 L383,120.766234 L358.268293,112 L353.731707,124.272727 L341.878049,112 C333.292683,114.922078 325.317073,118.818182 317.95122,123.688312 C310.585366,128.558442 304.121951,133.988636 298.560976,139.978896 C293,145.969156 288.682927,152.12987 285.609756,158.461039 C282.536585,164.792208 281,170.977273 281,177.016234 C281,184.418831 283.170732,190.189935 287.512195,194.329545 C291.853659,198.469156 297.292683,200.538961 303.829268,200.538961 C309.195122,200.538961 314.219512,199.029221 318.902439,196.00974 C323.585366,192.99026 328.170732,188.412338 332.658537,182.275974 L332.658537,182.275974 L328.707317,193.233766 L353.439024,202 Z M313.150502,181 C311.777035,181 310.575251,180.537838 309.545151,179.613514 C308.51505,178.689189 308,177.156757 308,175.016216 C308,171.805405 309.103679,168.035135 311.311037,163.705405 C313.518395,159.375676 316.608696,154.875676 320.58194,150.205405 C324.555184,145.535135 329.215162,141.156757 334.561873,137.07027 C339.908584,132.983784 345.721293,129.627027 352,127 C347.09476,139.940541 342.140468,150.375676 337.137124,158.305405 C332.133779,166.235135 327.54738,172 323.377926,175.6 C319.208473,179.2 315.799331,181 313.150502,181 Z M485.666203,200 L499.10153,178.096277 C495.109875,176.162174 491.264256,173.937955 487.564673,171.42362 C492.62726,165.234489 497.105702,158.223363 501,150.390244 L501,150.390244 L485.958275,143.717587 C482.842837,150.680359 479.337969,156.772786 475.443672,161.994865 C472.133519,158.9003 469.164117,155.733205 466.535466,152.493582 C463.906815,149.253958 461.618915,146.086864 459.671766,142.992298 C466.097357,141.735131 471.938804,139.680145 477.196106,136.827343 C482.453408,133.97454 486.639777,130.396448 489.755216,126.093068 C492.870654,121.789688 494.428373,116.930252 494.428373,111.514763 C494.428373,106.582798 493.065369,102.279418 490.33936,98.6046213 C487.613352,94.9298246 483.938108,92.0770218 479.31363,90.0462131 C474.689152,88.0154044 469.456189,87 463.614743,87 C456.215577,87 449.668289,88.6198117 443.972879,91.8594352 C438.277469,95.0990586 433.823366,99.4991442 430.61057,105.059692 C427.397775,110.62024 425.791377,116.930252 425.791377,123.98973 C425.791377,128.534874 426.521558,133.273427 427.981919,138.205392 C418.05146,140.2362 410.238526,144.176936 404.543115,150.027599 C398.847705,155.878263 396,162.575096 396,170.1181 C396,176.113821 397.655076,181.239196 400.965229,185.494223 C404.275382,189.749251 408.778164,193.013051 414.473574,195.285623 C420.168985,197.558194 426.667594,198.69448 433.969402,198.69448 C440.102921,198.69448 445.968707,197.872486 451.566759,196.228498 C457.164812,194.58451 462.446453,192.263586 467.411683,189.265725 C473.155772,193.327343 479.240612,196.905434 485.666203,200 L485.666203,200 Z M454.338462,130 C452.779487,125.583756 452,121.658206 452,118.22335 C452,112.629442 452.974359,108.360406 454.923077,105.416244 C456.871795,102.472081 459.453846,101 462.669231,101 C465.397436,101 467.467949,102.079526 468.880769,104.238579 C470.29359,106.397631 471,109.194585 471,112.629442 C471,122.1489 465.446154,127.939086 454.338462,130 Z M442.163462,182 C437.644231,182 434.158654,181.261905 431.706731,179.785714 C429.254808,178.309524 427.524038,176.390476 426.514423,174.028571 C425.504808,171.666667 425,169.255556 425,166.795238 C425,162.957143 425.841346,159.75873 427.524038,157.2 C429.206731,154.64127 431.25,152.574603 433.653846,151 C436.153846,155.920635 439.182692,160.76746 442.740385,165.540476 C446.298077,170.313492 450.384615,174.914286 455,179.342857 C450.865385,181.114286 446.586538,182 442.163462,182 Z M3.05319149,333 L43.7624113,330.663809 C63.2446809,329.495713 79.2375887,324.652983 91.7411348,316.135618 C104.244681,307.618253 113.161939,296.107643 118.492908,281.603788 C121.497636,273.329776 123,265.688484 123,258.679909 C123,249.432485 120.867612,241.426162 116.602837,234.660941 C112.338061,227.89572 106.086288,222.785301 97.8475177,219.329684 C89.608747,215.874068 79.5768322,214.486954 67.751773,215.168343 L67.751773,215.168343 L26.1702128,217.650547 L29.2234043,234.003887 L38.2375887,233.419839 L8.14184397,316.208624 L0,316.64666 L3.05319149,333 Z M38,315 L68.0310881,232.049803 C76.2521589,231.659679 82.6355786,233.561535 87.1813472,237.755372 C91.7271157,241.949209 94,248.044903 94,256.042453 C94,259.065917 93.6856649,262.333208 93.0569948,265.844328 C92.4283247,269.355447 91.388601,273.061629 89.9378238,276.962873 C85.3920553,289.544384 79.492228,298.785455 72.238342,304.686087 C64.984456,310.586718 55.6027634,313.927158 44.0932642,314.707407 L44.0932642,314.707407 L38,315 Z M155.798561,333 C163.859712,333 171.265288,331.027597 178.015288,327.082792 C184.765288,323.137987 189.93705,318 193.530576,311.668831 L193.530576,311.668831 L173.426259,301.587662 C171.483813,306.652597 169.152878,310.426948 166.433453,312.910714 C163.714029,315.394481 160.848921,316.636364 157.838129,316.636364 C154.633094,316.636364 152.229317,315.418831 150.626799,312.983766 C149.024281,310.548701 148.223022,307.188312 148.223022,302.902597 C148.223022,298.519481 149,293.503247 150.553957,287.853896 L150.553957,287.853896 L155.070144,297.642857 C170.415468,296.376623 182.240108,293.040584 190.544065,287.63474 C198.848022,282.228896 203,275.094156 203,266.230519 C203,259.12013 200.353417,253.470779 195.060252,249.282468 C189.767086,245.094156 182.652878,243 173.717626,243 C166.821942,243 160.193345,244.461039 153.831835,247.383117 C147.470324,250.305195 141.81295,254.444805 136.859712,259.801948 C131.906475,265.159091 128.118705,271.538961 125.496403,278.941558 C124.330935,282.253247 123.456835,285.540584 122.874101,288.803571 C122.291367,292.066558 122,295.5 122,299.103896 C122,305.435065 123.238309,311.157468 125.714928,316.271104 C128.191547,321.38474 131.930755,325.451299 136.932554,328.470779 C141.934353,331.49026 148.223022,333 155.798561,333 Z M153,282 C155.697495,274.47983 158.708092,268.766454 162.031792,264.859873 C165.355491,260.953291 168.703276,259 172.075145,259 C176.025048,259 178,260.904459 178,264.713376 C178,266.861996 177.132948,269.181529 175.398844,271.671975 C173.66474,274.16242 170.967245,276.359873 167.306358,278.264331 C163.645472,280.16879 158.876686,281.414013 153,282 Z M230.76054,333 C237.62507,333 244.054525,332.172078 250.048904,330.516234 C256.043283,328.86039 261.288364,326.522727 265.784148,323.503247 C270.279933,320.483766 273.808881,316.952922 276.370995,312.910714 C278.933108,308.868506 280.214165,304.461039 280.214165,299.688312 C280.214165,294.915584 279.126476,291.019481 276.951096,288 C274.775717,284.980519 271.971894,282.521104 268.539629,280.621753 C265.107364,278.722403 261.481731,277.212662 257.662732,276.092532 C253.843732,274.972403 250.2181,273.998377 246.785835,273.170455 C243.353569,272.342532 240.549747,271.441558 238.374368,270.467532 C236.198988,269.493506 235.111298,268.227273 235.111298,266.668831 C235.111298,264.623377 236.464868,262.821429 239.172007,261.262987 C241.879146,259.704545 245.214727,258.925325 249.178752,258.925325 C252.659359,258.925325 255.293985,259.461039 257.082631,260.532468 C258.871276,261.603896 259.765599,262.821429 259.765599,264.185065 C259.765599,265.743506 258.798763,267.155844 256.865093,268.422078 L256.865093,268.422078 L277.168634,276.603896 C279.682406,274.850649 281.616076,272.756494 282.969646,270.321429 C284.323215,267.886364 285,265.353896 285,262.724026 C285,258.730519 283.525576,255.248377 280.576728,252.277597 C277.627881,249.306818 273.712198,247.017857 268.82968,245.410714 C263.947161,243.803571 258.557055,243 252.659359,243 C244.827993,243 237.697583,244.363636 231.268128,247.090909 C224.838673,249.818182 219.714446,253.568182 215.895447,258.340909 C212.076447,263.113636 210.166948,268.470779 210.166948,274.412338 C210.166948,278.99026 211.206296,282.715909 213.284992,285.589286 C215.363687,288.462662 218.070826,290.702922 221.406408,292.310065 C224.74199,293.917208 228.270939,295.183442 231.993255,296.108766 C235.715571,297.034091 239.220349,297.862013 242.507589,298.592532 C245.794829,299.323052 248.501967,300.248377 250.629005,301.368506 C252.756043,302.488636 253.819562,304.071429 253.819562,306.116883 C253.819562,308.551948 252.224283,310.962662 249.033727,313.349026 C245.84317,315.73539 241.492411,316.928571 235.98145,316.928571 C232.307476,316.928571 229.624508,316.368506 227.932546,315.248377 C226.240585,314.128247 225.394604,312.788961 225.394604,311.230519 C225.394604,308.308442 227.569983,305.922078 231.920742,304.071429 L231.920742,304.071429 L214.372681,296.766234 C209.538505,298.324675 205.767847,300.637987 203.060708,303.706169 C200.353569,306.774351 199,310.256494 199,314.152597 C199,319.899351 201.924677,324.477273 207.77403,327.886364 C213.623384,331.295455 221.285554,333 230.76054,333 Z M334.290909,247 L342,225.695652 L317.709091,217 L310,238.304348 L334.290909,247 Z M302.598383,333 L332,251.766234 L307.401617,243 L278,324.233766 L302.598383,333 Z M346.976923,359 C359.64359,359 370.142308,356.09596 378.473077,350.287879 C386.803846,344.479798 392.771795,336.590488 396.376923,326.619949 L396.376923,326.619949 L424,252.712121 L400.469231,244 L397.546154,251.840909 C397.058974,253.196128 396.571795,254.502946 396.084615,255.761364 L396.084615,255.761364 L384.830769,244 C376.061538,246.710438 367.828205,250.292088 360.130769,254.744949 C352.433333,259.197811 345.685897,264.207281 339.888462,269.773359 C334.091026,275.339436 329.535897,281.147517 326.223077,287.197601 C322.910256,293.247685 321.253846,299.32197 321.253846,305.420455 C321.253846,312.583754 323.446154,318.319234 327.830769,322.626894 C332.215385,326.934554 338.061538,329.088384 345.369231,329.088384 C350.825641,329.088384 355.916667,327.733165 360.642308,325.022727 C365.367949,322.31229 370.117949,317.956229 374.892308,311.954545 L374.892308,311.954545 L370.361538,323.861111 C368.120513,329.959596 365.319231,334.630261 361.957692,337.873106 C358.596154,341.115951 354.138462,342.737374 348.584615,342.737374 C344.2,342.737374 340.15641,341.890362 336.453846,340.196338 C332.751282,338.502315 329.682051,335.864478 327.246154,332.282828 L327.246154,332.282828 L310,344.770202 C313.020513,349.223064 317.892308,352.707912 324.615385,355.224747 C331.338462,357.741582 338.792308,359 346.976923,359 Z M354.551948,310 C350.850649,310 349,307.874396 349,303.623188 C349,300.531401 350.095779,297.004831 352.287338,293.043478 C354.478896,289.082126 357.595779,285.024155 361.637987,280.869565 C365.680195,276.714976 370.452922,272.801932 375.956169,269.130435 C381.459416,265.458937 387.474026,262.415459 394,260 C389.909091,269.951691 385.866883,278.164251 381.873377,284.637681 C377.87987,291.111111 374.105519,296.207729 370.550325,299.927536 C366.99513,303.647343 363.829545,306.256039 361.053571,307.753623 C358.277597,309.251208 356.11039,310 354.551948,310 Z M479.659218,333 L509,251.766234 L484.888268,243 C477.625698,251.863636 470.653631,260.26461 463.972067,268.202922 C457.290503,276.141234 450.657356,284.201299 444.072626,292.383117 L444.072626,292.383117 L458.888268,251.766234 L434.340782,243 L405,324.233766 L429.111732,333 C436.374302,323.357143 443.346369,314.517857 450.027933,306.482143 C456.709497,298.446429 463.536313,290.337662 470.50838,282.155844 L470.50838,282.155844 L455.111732,324.233766 L479.659218,333 Z" id="Data&amp;Design" fill="#203195" fill-rule="nonzero"></path>
    </g>
</svg>