<?xml version="1.0" encoding="UTF-8"?>
<svg width="640px" height="640px" viewBox="0 0 640 640" version="1.1" xmlns="http://www.w3.org/2000/svg" xmlns:xlink="http://www.w3.org/1999/xlink">
    <title>Artboard Copy 3</title>
    <g id="Artboard-Copy-3" stroke="none" stroke-width="1" fill="none" fill-rule="evenodd">
        <circle id="Oval" fill="#E3D9C9" cx="320" cy="320" r="320"></circle>
        <path d="M470.226704,547 L524.351878,458.997433 C508.27121,451.226786 492.77886,442.290543 477.874826,432.188703 C498.269819,407.322636 516.311544,379.154044 532,347.682927 L532,347.682927 L471.403338,320.874198 C458.852573,348.848524 444.732962,373.326059 429.044506,394.306804 C415.709318,381.87377 403.746871,369.149337 393.157163,356.133504 C382.567455,343.117672 373.350487,330.393239 365.506259,317.960205 C391.392211,312.909285 414.924896,304.652974 436.104312,293.191271 C457.283727,281.729568 474.148818,267.353872 486.699583,250.064185 C499.250348,232.774497 505.52573,213.250749 505.52573,191.49294 C505.52573,171.677792 500.034771,154.388104 489.052851,139.623877 C478.070932,124.859649 463.264951,113.397946 444.63491,105.238768 C426.004868,97.0795892 404.923505,93 381.390821,93 C351.582754,93 325.206537,99.5079161 302.26217,112.523748 C279.317803,125.539581 261.374131,143.217801 248.431154,165.558408 C235.488178,187.899016 229.01669,213.250749 229.01669,241.613607 C229.01669,259.874626 231.958275,278.912709 237.841446,298.727856 C197.835883,306.887035 166.360918,322.719726 143.416551,346.225931 C120.472184,369.732135 109,396.637997 109,426.943517 C109,451.03252 115.667594,471.624733 129.002782,488.720154 C142.337969,505.815576 160.477747,518.928541 183.422114,528.05905 C206.366481,537.189559 232.546592,541.754814 261.962448,541.754814 C286.671766,541.754814 310.302503,538.452289 332.854659,531.84724 C355.406815,525.242191 376.684284,515.917415 396.687065,503.872914 C419.827538,520.191271 444.340751,534.566966 470.226704,547 L470.226704,547 Z M342.196495,264.47482 C335.898188,247.066209 332.749035,231.591888 332.749035,218.051857 C332.749035,196.000949 336.685477,179.172625 344.558361,167.566885 C352.431244,155.961144 362.862816,150.158273 375.853074,150.158273 C386.875111,150.158273 395.24005,154.413712 400.947891,162.924588 C406.655732,171.435465 409.509653,182.460919 409.509653,196.000949 C409.509653,233.526178 387.071933,256.350802 342.196495,264.47482 Z M295.2717,475.143885 C276.327573,475.143885 261.716411,472.14988 251.438215,466.161871 C241.160018,460.173861 233.904821,452.389448 229.672622,442.808633 C225.440424,433.227818 223.324324,423.447402 223.324324,413.467386 C223.324324,397.898561 226.851156,384.92454 233.904821,374.545324 C240.958485,364.166107 249.523649,355.782894 259.600312,349.395683 C270.080042,369.355715 282.776637,389.016347 297.690099,408.377578 C312.60356,427.738809 329.733888,446.401439 349.081081,464.365468 C331.74922,471.551079 313.81276,475.143885 295.2717,475.143885 Z" id="D&amp;D-Copy" fill="#203195" fill-rule="nonzero"></path>
    </g>
</svg>