<?xml version="1.0" encoding="UTF-8"?>
<svg width="640px" height="640px" viewBox="0 0 640 640" version="1.1" xmlns="http://www.w3.org/2000/svg" xmlns:xlink="http://www.w3.org/1999/xlink">
    <title>Artboard Copy 3</title>
    <g id="Artboard-Copy-3" stroke="none" stroke-width="1" fill="none" fill-rule="evenodd">
        <circle id="Oval" stroke="#1C269E" stroke-width="40" fill="#FEFDFC" cx="320" cy="320" r="300"></circle>
        <path d="M455.226704,535 L509.351878,446.997433 C493.27121,439.226786 477.77886,430.290543 462.874826,420.188703 C483.269819,395.322636 501.311544,367.154044 517,335.682927 L517,335.682927 L456.403338,308.874198 C443.852573,336.848524 429.732962,361.326059 414.044506,382.306804 C400.709318,369.87377 388.746871,357.149337 378.157163,344.133504 C367.567455,331.117672 358.350487,318.393239 350.506259,305.960205 C376.392211,300.909285 399.924896,292.652974 421.104312,281.191271 C442.283727,269.729568 459.148818,255.353872 471.699583,238.064185 C484.250348,220.774497 490.52573,201.250749 490.52573,179.49294 C490.52573,159.677792 485.034771,142.388104 474.052851,127.623877 C463.070932,112.859649 448.264951,101.397946 429.63491,93.2387677 C411.004868,85.0795892 389.923505,81 366.390821,81 C336.582754,81 310.206537,87.5079161 287.26217,100.523748 C264.317803,113.539581 246.374131,131.217801 233.431154,153.558408 C220.488178,175.899016 214.01669,201.250749 214.01669,229.613607 C214.01669,247.874626 216.958275,266.912709 222.841446,286.727856 C182.835883,294.887035 151.360918,310.719726 128.416551,334.225931 C105.472184,357.732135 94,384.637997 94,414.943517 C94,439.03252 100.667594,459.624733 114.002782,476.720154 C127.337969,493.815576 145.477747,506.928541 168.422114,516.05905 C191.366481,525.189559 217.546592,529.754814 246.962448,529.754814 C271.671766,529.754814 295.302503,526.452289 317.854659,519.84724 C340.406815,513.242191 361.684284,503.917415 381.687065,491.872914 C404.827538,508.191271 429.340751,522.566966 455.226704,535 L455.226704,535 Z M340.196495,264.47482 C333.898188,247.066209 330.749035,231.591888 330.749035,218.051857 C330.749035,196.000949 334.685477,179.172625 342.558361,167.566885 C350.431244,155.961144 360.862816,150.158273 373.853074,150.158273 C384.875111,150.158273 393.24005,154.413712 398.947891,162.924588 C404.655732,171.435465 407.509653,182.460919 407.509653,196.000949 C407.509653,233.526178 385.071933,256.350802 340.196495,264.47482 Z M293.2717,475.143885 C274.327573,475.143885 259.716411,472.14988 249.438215,466.161871 C239.160018,460.173861 231.904821,452.389448 227.672622,442.808633 C223.440424,433.227818 221.324324,423.447402 221.324324,413.467386 C221.324324,397.898561 224.851156,384.92454 231.904821,374.545324 C238.958485,364.166107 247.523649,355.782894 257.600312,349.395683 C268.080042,369.355715 280.776637,389.016347 295.690099,408.377578 C310.60356,427.738809 327.733888,446.401439 347.081081,464.365468 C329.74922,471.551079 311.81276,475.143885 293.2717,475.143885 Z" id="D&amp;D-Copy" fill="#1C269E" fill-rule="nonzero"></path>
    </g>
</svg>