<?xml version="1.0" encoding="UTF-8"?>
<svg width="526px" height="495px" viewBox="0 0 526 495" version="1.1" xmlns="http://www.w3.org/2000/svg" xmlns:xlink="http://www.w3.org/1999/xlink">
    <title>favicon</title>
    <defs>
        <path d="M5.7,340.6 L67.3,337.08 C96.78,335.32 120.98,328.023333 139.9,315.19 C158.82,302.356667 172.313333,285.013333 180.38,263.16 C184.926667,250.693333 187.2,239.18 187.2,228.62 C187.2,214.686667 183.973333,202.623333 177.52,192.43 C171.066667,182.236667 161.606667,174.536667 149.14,169.33 C136.673333,164.123333 121.493333,162.033333 103.6,163.06 L103.6,163.06 L40.68,166.8 L45.3,191.44 L58.94,190.56 L13.4,315.3 L1.08,315.96 L5.7,340.6 Z M58.5,312.66 L104.04,187.92 C116.506667,187.333333 126.186667,190.193333 133.08,196.5 C139.973333,202.806667 143.42,211.973333 143.42,224 C143.42,228.546667 142.943333,233.46 141.99,238.74 C141.036667,244.02 139.46,249.593333 137.26,255.46 C130.366667,274.38 121.42,288.276667 110.42,297.15 C99.42,306.023333 85.1933333,311.046667 67.74,312.22 L67.74,312.22 L58.5,312.66 Z M312.82,338.4 L333.06,305.18 C327.046667,302.246667 321.253333,298.873333 315.68,295.06 C323.306667,285.673333 330.053333,275.04 335.92,263.16 L335.92,263.16 L313.26,253.04 C308.566667,263.6 303.286667,272.84 297.42,280.76 C292.433333,276.066667 287.96,271.263333 284,266.35 C280.04,261.436667 276.593333,256.633333 273.66,251.94 C283.34,250.033333 292.14,246.916667 300.06,242.59 C307.98,238.263333 314.286667,232.836667 318.98,226.31 C323.673333,219.783333 326.02,212.413333 326.02,204.2 C326.02,196.72 323.966667,190.193333 319.86,184.62 C315.753333,179.046667 310.216667,174.72 303.25,171.64 C296.283333,168.56 288.4,167.02 279.6,167.02 C268.453333,167.02 258.59,169.476667 250.01,174.39 C241.43,179.303333 234.72,185.976667 229.88,194.41 C225.04,202.843333 222.62,212.413333 222.62,223.12 C222.62,230.013333 223.72,237.2 225.92,244.68 C210.96,247.76 199.19,253.736667 190.61,262.61 C182.03,271.483333 177.74,281.64 177.74,293.08 C177.74,302.173333 180.233333,309.946667 185.22,316.4 C190.206667,322.853333 196.99,327.803333 205.57,331.25 C214.15,334.696667 223.94,336.42 234.94,336.42 C244.18,336.42 253.016667,335.173333 261.45,332.68 C269.883333,330.186667 277.84,326.666667 285.32,322.12 C293.973333,328.28 303.14,333.706667 312.82,338.4 L312.82,338.4 Z M264.42,233.02 C262.073333,226.42 260.9,220.553333 260.9,215.42 C260.9,207.06 262.366667,200.68 265.3,196.28 C268.233333,191.88 272.12,189.68 276.96,189.68 C281.066667,189.68 284.183333,191.293333 286.31,194.52 C288.436667,197.746667 289.5,201.926667 289.5,207.06 C289.5,221.286667 281.14,229.94 264.42,233.02 Z M246.82,310.68 C239.926667,310.68 234.61,309.58 230.87,307.38 C227.13,305.18 224.49,302.32 222.95,298.8 C221.41,295.28 220.64,291.686667 220.64,288.02 C220.64,282.3 221.923333,277.533333 224.49,273.72 C227.056667,269.906667 230.173333,266.826667 233.84,264.48 C237.653333,271.813333 242.273333,279.036667 247.7,286.15 C253.126667,293.263333 259.36,300.12 266.4,306.72 C260.093333,309.36 253.566667,310.68 246.82,310.68 Z M335.92,340.6 L397.52,337.08 C427,335.32 451.2,328.023333 470.12,315.19 C489.04,302.356667 502.533333,285.013333 510.6,263.16 C515.146667,250.693333 517.42,239.18 517.42,228.62 C517.42,214.686667 514.193333,202.623333 507.74,192.43 C501.286667,182.236667 491.826667,174.536667 479.36,169.33 C466.893333,164.123333 451.713333,162.033333 433.82,163.06 L433.82,163.06 L370.9,166.8 L375.52,191.44 L389.16,190.56 L343.62,315.3 L331.3,315.96 L335.92,340.6 Z M388.72,312.66 L434.26,187.92 C446.726667,187.333333 456.406667,190.193333 463.3,196.5 C470.193333,202.806667 473.64,211.973333 473.64,224 C473.64,228.546667 473.163333,233.46 472.21,238.74 C471.256667,244.02 469.68,249.593333 467.48,255.46 C460.586667,274.38 451.64,288.276667 440.64,297.15 C429.64,306.023333 415.413333,311.046667 397.96,312.22 L397.96,312.22 L388.72,312.66 Z" id="path-1"></path>
    </defs>
    <g id="Page-1" stroke="none" stroke-width="1" fill="none" fill-rule="evenodd">
        <g id="favicon" fill-rule="nonzero">
            <rect id="Rectangle" fill="#FFFFFF" x="0" y="0" width="526" height="495"></rect>
            <g id="Bitmap" opacity="0.500780378" transform="translate(28.000000, 27.000000)" fill="#1C269E">
                <path d="M470,192.212996 C470,198.180089 470,204.147167 469.775927,210.784415 C469.230981,211.987386 468.830033,212.487975 468.60069,213.057715 C460.508148,233.162096 452.431844,253.273039 444.352963,273.382894 C434.648809,297.538385 424.918048,321.683157 415.247859,345.852232 C406.732202,367.135812 398.213567,388.418904 389.876589,409.772667 C388.510758,413.271059 386.274096,415.147867 382.845186,415.836622 C379.329612,416.5428 375.791157,417.181375 372.235116,417.630867 C360.334853,419.135214 348.288645,419.859934 336.549133,422.163194 C322.767505,424.867143 308.736401,425.348647 294.963737,428.045633 C285.054555,429.986117 274.883669,430.561532 264.849362,431.89528 C248.484137,434.070614 232.12464,436.294866 215.783915,438.646156 C208.238081,439.731931 200.544296,439.841575 193.157724,442 C178.748569,442 164.339428,442 149.280135,441.766785 C132.793967,421.221909 116.894286,400.959597 101.139262,380.585263 C84.3284181,358.84557 67.6864744,336.975199 50.9112946,315.207795 C34.5181571,293.936137 18.0636798,272.711678 1.593034,251.500029 C-0.0199767282,249.422732 -0.511028296,247.266371 0.598532085,244.957808 C4.59393483,236.64487 7.4703167,227.892755 10.815294,219.32445 C16.4302879,204.941367 22.1297318,190.591153 27.7082885,176.193999 C34.9819505,157.422077 42.1149841,138.59549 49.4147763,119.833828 C56.7087726,101.087039 64.1315015,82.3903925 71.5022366,63.6735077 C75.9029965,52.4984587 80.3109871,41.3262692 84.7188201,30.1540073 C85.7058482,27.6522722 87.2726329,25.9291222 90.186196,25.7331192 C93.9213098,25.4818363 97.6544688,25.16123 101.376079,24.756421 C117.175909,23.0378273 132.977057,21.3285263 148.766062,19.5142952 C160.070917,18.2153154 171.324493,16.284291 182.660737,15.4940813 C194.974292,14.6357502 207.08501,12.3556344 219.350251,11.232869 C231.890657,10.0849184 244.430033,8.92413563 256.899127,7.01013708 C265.208439,5.73465609 273.654102,5.37626902 282.016054,4.41043845 C295.324248,2.87329994 308.560671,0.699145402 321.965465,0.0304439932 C324.235806,-0.0828118761 326.314409,0.0234123951 327.839388,2.07389513 C330.539404,5.70427222 333.339856,9.25977894 336.045399,12.8861416 C349.767743,31.2788931 363.450222,49.7014875 377.190553,68.0807655 C392.33088,88.3326967 407.538796,108.534019 422.680584,128.784869 C438.476491,149.910546 454.228694,171.068921 470,192.212996 M311.99173,187.224184 C308.666636,173.904222 307.462818,160.209534 304.817445,146.751687 C300.615192,125.37318 297.591182,103.763377 294.020907,82.2593567 C293.366732,78.3190794 291.986066,77.8296593 288.7757,80.2958524 C280.11132,86.9518 271.509,93.688855 262.825403,100.319419 C236.271763,120.595014 209.654503,140.787345 183.131536,161.102975 C154.009207,183.409627 124.925326,205.767176 95.9379585,228.248768 C92.5697123,230.86107 88.5768819,232.924267 85.5065199,237.686627 C169.961111,277.009214 254.037845,316.155871 338.395615,355.433408 C339.589095,352.335275 339.537487,350.508588 339.104234,348.662616 C337.181343,340.470096 336.506432,332.071472 334.902037,323.810404 C332.054959,309.150947 330.008175,294.337428 327.509808,279.608219 C324.912322,264.294483 322.108776,249.015739 319.520281,233.700541 C316.949686,218.491119 314.534603,203.255332 311.99173,187.224184 M85.2620982,248.784043 C83.7492912,249.240127 84.4884901,250.321976 84.7652161,251.063144 C87.3821488,258.072339 89.993175,265.085287 92.7443257,272.042353 C98.4161632,286.385202 104.223529,300.674403 109.880352,315.023127 C115.373074,328.9556 120.688361,342.958169 126.189402,356.887289 C132.083185,371.810881 138.083407,386.692462 144.074193,401.577482 C148.148,411.699482 152.380368,421.758865 156.332803,431.927606 C157.420347,434.725609 158.950095,435.056546 161.356086,434.065456 C169.574955,430.679744 177.796102,427.299563 186.016847,423.918408 C207.513839,415.076854 228.98719,406.177067 250.514454,397.409965 C275.934898,387.057272 301.404029,376.824282 326.843948,366.519418 C328.242542,365.952887 329.868674,365.52271 330.082236,363.117572 C325.338472,360.120943 319.98793,358.023215 314.797109,355.593001 C292.615641,345.20804 270.494686,334.693404 248.301103,324.334492 C232.753528,317.07764 217.088902,310.071856 201.540481,302.816781 C182.600695,293.979181 163.761403,284.925847 144.817006,276.098278 C125.164162,266.940602 105.437629,257.94126 85.2620982,248.784043 M368.148249,325.553696 C375.188903,316.197081 382.27329,306.872991 389.26099,297.476943 C403.143914,278.809162 416.980014,260.106534 430.822987,241.409035 C439.930759,229.107288 448.929187,216.722923 458.173884,204.525245 C460.50474,201.449808 459.844664,199.577457 457.046188,197.635396 C454.351757,195.765508 451.689002,193.844983 449.07983,191.857929 C428.711593,176.346257 408.384311,160.780636 387.996027,145.295442 C365.858491,128.481644 343.675332,111.727955 321.497243,94.9676818 C316.202032,90.9660133 310.848025,87.0422285 305.521053,83.0826293 C305.078492,83.3037434 304.635902,83.5248575 304.193341,83.7459781 C319.189499,171.86461 334.185686,259.98325 349.181871,348.101874 C349.745978,348.14509 350.310112,348.188277 350.874247,348.231464 C357.145481,341.366331 362.124744,333.475804 368.148249,325.553696 M228.020632,63.0561459 C224.778133,62.6026633 221.465598,62.4323085 218.304593,61.6493925 C198.949008,56.8553516 179.178872,54.137439 159.728736,49.819033 C153.4932,48.4345894 147.131381,47.6291916 140.869397,46.3524213 C126.832279,43.4903618 112.838664,40.4165149 98.6713883,38.2228197 C96.3020699,37.8559539 95.043085,38.4188724 94.9637542,40.9526902 C94.4308723,57.9711887 91.6980083,74.818738 91.1200836,91.8447593 C90.701651,104.172119 89.929095,116.500201 88.871458,128.789783 C87.6128448,143.414736 86.3316788,158.028985 85.5097632,172.690648 C84.7410229,186.403705 84.0385614,200.133929 82.227692,213.772661 C81.7683628,217.232109 81.1054447,220.784521 83.2243786,225.390383 C148.819918,175.056225 213.933539,125.091877 279.047146,75.1275227 C278.940522,74.5645394 278.833869,74.0015552 278.727217,73.4385719 C262.089405,70.02752 245.451563,66.6164681 228.020632,63.0561459 M404.501297,145.48835 C410.962953,150.399901 417.408686,155.332573 423.89079,160.217 C430.209164,164.978071 436.273566,170.111173 442.98991,174.298564 C443.248522,174.01024 443.507134,173.721917 443.765745,173.433594 C403.932952,120.197477 364.100131,66.9613826 323.798658,13.0989207 C322.806455,15.0261908 322.388093,15.6793491 322.117024,16.3888475 C316.717967,30.5204759 311.65313,44.7906741 305.847339,58.7524783 C301.427656,69.3809275 302.193496,67.7671955 310.013708,73.7216068 C325.158847,85.2533488 340.357742,96.7143917 355.517459,108.227069 C371.676768,120.498911 387.816487,132.796589 404.501297,145.48835 M89.9442519,349.56825 C104.830915,368.947453 119.717578,388.326685 134.604249,407.705888 C134.463201,404.332098 133.539917,401.408202 132.413252,398.564977 C125.292523,380.595035 118.119484,362.645898 110.978064,344.684152 C105.039881,329.748753 99.1274105,314.80318 93.1925934,299.866434 C86.3392249,282.617887 79.3817318,265.409718 72.6940623,248.097151 C71.4090806,244.770675 69.837477,243.413284 66.1948032,243.770156 C52.8531592,245.077224 39.4589659,245.892816 26.1479435,247.439634 C22.1348688,247.905949 17.6801979,246.967502 13.9153262,249.582641 C13.9109931,251.856384 15.4380016,253.135225 16.5379195,254.565063 C31.8583691,274.480275 47.2031012,294.376832 62.5661987,314.259175 C71.5340331,325.864974 80.5451262,337.437359 89.9442519,349.56825 M169.832951,42.3482812 C188.008473,45.118143 205.968255,48.9833874 223.96995,52.687169 C245.315498,57.0789373 266.822801,60.6792648 288.224539,64.8066392 C291.450112,65.4286933 292.941726,64.2091665 293.97225,61.583552 C299.842592,46.6264593 305.732783,31.676985 311.523365,16.6889994 C312.148558,15.0708323 313.546436,13.393258 311.872133,10.7933707 C249.919475,17.8273896 187.692454,24.8925549 125.465432,31.9577249 C125.442263,32.4435231 125.419108,32.929325 125.395939,33.4151269 C133.023582,34.5756017 140.605415,35.9214146 148.060149,37.8557962 C154.984614,39.6525563 162.340213,39.3729527 169.832951,42.3482812 M78.6009568,132.438858 C79.4477094,120.908227 80.3724039,109.382639 81.1190559,97.8455324 C81.8496549,86.556512 82.3987824,75.2557432 83.0275625,63.9601326 C82.6661294,63.9188727 82.3046888,63.8776203 81.9432548,63.8363678 C59.5443798,121.591923 37.1455001,179.34747 14.5545548,237.598276 C19.2872908,237.598276 23.024455,237.906947 26.6949951,237.54291 C40.0235186,236.221141 53.3169564,234.535678 66.652751,233.302832 C70.2777181,232.96774 71.701701,231.45643 71.7391113,228.08711 C72.0081616,203.859618 75.8501571,179.880156 76.7695456,155.679844 C77.0514912,148.258627 76.4871853,140.637581 78.6009568,132.438858 M437.330895,249.167194 C431.192977,257.43448 425.048728,265.697125 418.918457,273.970057 C406.562859,290.644365 394.207004,307.318444 381.866441,324.003842 C373.143752,335.797549 364.509815,347.657798 355.691355,359.379202 C353.544133,362.23323 353.628217,364.47267 355.760461,367.250556 C361.460773,374.676803 366.83858,382.352227 372.590157,389.737092 C375.497004,393.469444 377.716311,397.82951 382.507673,401.500336 C404.860661,345.875932 427.003409,290.774728 449.146157,235.673524 C444.033006,239.101763 441.353697,244.263753 437.330895,249.167194 M245.381999,410.342377 C228.943916,417.04591 212.505833,423.749444 194.793006,430.972824 C202.166591,430.306165 208.296576,430.393427 214.118534,429.096303 C227.565069,426.100361 241.335341,425.718414 254.854663,423.350302 C264.666816,421.631569 274.718248,421.267017 284.518716,419.498276 C300.149146,416.677375 316.005911,415.654016 331.643386,412.821108 C343.429436,410.685895 355.523444,410.390637 367.3544,408.232956 C371.897174,407.404468 372.476459,406.252007 369.702154,402.52934 C362.608403,393.010638 355.291438,383.654136 348.381779,374.004699 C345.972366,370.639879 343.677996,370.25839 340.097097,371.737146 C326.392279,377.396629 312.582012,382.799856 298.85414,388.404174 C281.238471,395.595601 263.664244,402.888619 245.381999,410.342377 Z" id="Shape"></path>
            </g>
            <g id="D&amp;D">
                <use fill="#000000" xlink:href="#path-1"></use>
                <use fill="#203195" xlink:href="#path-1"></use>
            </g>
        </g>
    </g>
</svg>